<svg xmlns="http://www.w3.org/2000/svg" preserveAspectRatio="xMidYMid" width="207" height="15.969" viewBox="0 0 207 15.969"><defs><style>.cls-1{fill:#fff;fill-rule:evenodd}</style></defs><path d="M203.761 15.648l-7.131-9.276v9.276h-3.578V.295h3.236l7.132 9.392V.295h3.577v15.353h-3.236zm-20.979.322c-4.603 0-8.135-3.499-8.135-8.033 0-4.488 3.509-7.942 8.065-7.942 4.58 0 8.135 3.499 8.135 8.012 0 4.511-3.486 7.963-8.065 7.963zm-.046-12.729c-2.575 0-4.58 2.049-4.58 4.673 0 2.67 2.073 4.81 4.626 4.81 2.528 0 4.533-2.094 4.533-4.764 0-2.693-1.959-4.719-4.579-4.719zm-15.343 12.131c-1.071.253-1.959.3-4.716.3-1.026 0-2.052 0-3.099-.024V.295h4.534c2.962 0 4.352.368 5.924 1.519 1.845 1.381 2.939 3.614 2.939 6.1 0 2.187-.821 4.212-2.256 5.616-.957.945-2.096 1.589-3.326 1.842zm.751-10.865c-.98-.897-2.141-1.242-4.26-1.242-.16 0-.388 0-.729.022v9.323h1.003c1.093 0 1.435-.023 2.05-.161 2.051-.461 3.304-2.164 3.304-4.512 0-1.45-.478-2.624-1.368-3.43zm-21.883 1.865v9.276h-3.577V.295h3.236l7.131 9.392V.295h3.577v15.353h-3.235l-7.132-9.276zm-13.848 9.598c-4.603 0-8.134-3.499-8.134-8.033 0-4.488 3.509-7.942 8.065-7.942 4.58 0 8.134 3.499 8.134 8.012 0 4.511-3.485 7.963-8.065 7.963zm-.046-12.729c-2.575 0-4.579 2.049-4.579 4.673 0 2.67 2.073 4.81 4.625 4.81 2.529 0 4.533-2.094 4.533-4.764 0-2.693-1.959-4.719-4.579-4.719zM114.584.295h3.577v12.107h5.833v3.246h-9.41V.295zM101.343 5.98h4.762v3.062h-4.762v6.606h-3.6V.295h9.592v3.062h-5.992V5.98zm-14.008 9.99c-4.603 0-8.134-3.499-8.134-8.033 0-4.488 3.509-7.942 8.065-7.942 4.579 0 8.134 3.499 8.134 8.012 0 4.511-3.485 7.963-8.065 7.963zm-.046-12.729c-2.575 0-4.579 2.049-4.579 4.673 0 2.67 2.072 4.81 4.625 4.81 2.528 0 4.533-2.094 4.533-4.764 0-2.693-1.959-4.719-4.579-4.719zM69.653 15.648l-3.828-5.8h-.684v5.8H61.61V.295h3.76c2.506 0 3.394.23 4.648 1.128 1.07.805 1.708 2.117 1.708 3.544 0 1.75-.82 3.085-2.506 4.075l4.421 6.606h-3.988zM67.488 3.494c-.41-.276-.706-.322-1.663-.322h-.684v3.614h.479c1.823 0 2.643-.575 2.643-1.842 0-.62-.274-1.15-.775-1.45zM51.179 15.97c-4.603 0-8.133-3.499-8.133-8.033 0-4.488 3.508-7.942 8.065-7.942 4.579 0 8.134 3.499 8.134 8.012 0 4.511-3.486 7.963-8.066 7.963zm-.046-12.729c-2.574 0-4.579 2.049-4.579 4.673 0 2.67 2.074 4.81 4.625 4.81 2.529 0 4.534-2.094 4.534-4.764 0-2.693-1.959-4.719-4.58-4.719zM38.369 15.648h-3.623V9.387L29.505.295h4.079l2.94 5.732L39.44.295h4.101l-5.172 9.092v6.261zm-10.415 0l-1.049-3.015H21.71l-.979 3.015h-3.873L22.463.295h3.622l5.765 15.353h-3.896zm-3.669-11.14l-1.55 5.018h3.099l-1.549-5.018zm-12.39 1.61l-4.239 5.387-4.123-5.387v9.53H.001V.295h3.327l4.328 5.823L11.895.295h3.44v15.353h-3.44v-9.53z" class="cls-1"/></svg>
